<?xml version="1.0" encoding="UTF-8"?>
<svg width="48px" height="48px" viewBox="0 0 48 48" version="1.1" xmlns="http://www.w3.org/2000/svg" xmlns:xlink="http://www.w3.org/1999/xlink">
    <title>默认头像/切图</title>
    <defs>
        <linearGradient x1="50%" y1="0%" x2="50%" y2="100%" id="linearGradient-1">
            <stop stop-color="#FFFFFF" stop-opacity="0.6" offset="0%"></stop>
            <stop stop-color="#FFFFFF" stop-opacity="0.2" offset="100%"></stop>
        </linearGradient>
        <path d="M4.99600361e-16,23.6475 C4.99600361e-16,27.93 1.05375,31.87125 3.16125,35.47125 C5.26875,39.07125 8.13,41.9325 11.745,44.055 C15.3675,46.185 19.32,47.25 23.6025,47.25 C27.885,47.25 31.8375,46.185 35.46,44.055 C39.075,41.9325 41.94375,39.06375 44.06625,35.44875 C46.18875,31.82625 47.25,27.8925 47.25,23.6475 C47.25,19.365 46.18875,15.4125 44.06625,11.79 C41.94375,8.175 39.075,5.30625 35.46,3.18375 C31.8375,1.06125 27.885,-4.99600361e-16 23.6025,-4.99600361e-16 C19.32,-4.99600361e-16 15.3675,1.06125 11.745,3.18375 C8.13,5.30625 5.26875,8.175 3.16125,11.79 C1.05375,15.4125 4.99600361e-16,19.365 4.99600361e-16,23.6475 Z" id="path-2"></path>
    </defs>
    <g id="默认头像/切图" stroke="none" stroke-width="1" fill="none" fill-rule="evenodd">
        <g id="头像/未登录备份" fill-rule="nonzero">
            <g id="person_crop_circle_fill_1">
                <g id="group" fill="#000000" opacity="0">
                    <rect id="矩形" x="0" y="0" width="48" height="48"></rect>
                </g>
                <g id="路径" transform="translate(0.3975, 0.3525)">
                    <use fill="#999999" xlink:href="#path-2"></use>
                    <use fill="url(#linearGradient-1)" xlink:href="#path-2"></use>
                </g>
                <g id="group1" transform="translate(9.42, 9.397)" fill="#FFFFFF" fill-opacity="0.9">
                    <g id="layers">
                        <path d="M0,27.8892562 C0.5775,26.1267562 1.56,24.5592563 2.9475,23.1867563 C4.3275,21.8217562 5.92875,20.7605062 7.75125,20.0030062 C9.56625,19.2455062 11.3925,18.8667562 13.23,18.8667562 L15.93,18.8667562 C17.7675,18.8667562 19.59375,19.2455062 21.40875,20.0030062 C23.23125,20.7605062 24.825,21.8217562 26.19,23.1867563 C27.555,24.5592563 28.52625,26.1267562 29.10375,27.8892562 C27.19875,29.9742562 25.005,31.5680062 22.5225,32.6705063 C20.0325,33.7655063 17.385,34.3130063 14.58,34.3130063 C11.7,34.3130063 9.01875,33.7542562 6.53625,32.6367562 C4.05375,31.5192562 1.875,29.9367562 0,27.8892562 Z M9.2925,2.18300625 C10.7625,0.70550625 12.5175,-0.02199375 14.5575,0.00050625 C16.59,0.01550625 18.345,0.76175625 19.8225,2.23925625 C21.2925,3.71675625 22.03875,5.47175625 22.06125,7.50425625 C22.07625,9.53675625 21.345,11.2917563 19.8675,12.7692563 C18.3975,14.2467562 16.6425,14.9742563 14.6025,14.9517562 C12.57,14.9367563 10.815,14.1905063 9.3375,12.7130062 C7.8675,11.2355062 7.12125,9.48050625 7.09875,7.44800625 C7.08375,5.41550625 7.815,3.66050625 9.2925,2.18300625 Z" id="形状"></path>
                    </g>
                </g>
            </g>
        </g>
    </g>
</svg>