<svg width="56.000000" height="56.000000" viewBox="0 0 56 56" fill="none" xmlns="http://www.w3.org/2000/svg" xmlns:xlink="http://www.w3.org/1999/xlink">
	<desc>
			Created with Pixso.
	</desc>
	<defs>
		<clipPath id="clip169_6625">
			<rect id="svg" width="56.000000" height="56.000000" fill="white" fill-opacity="0"/>
		</clipPath>
	</defs>
	<g clip-path="url(#clip169_6625)">
		<g opacity="0.000000">
			<rect id="rect" width="56.000000" height="56.000000" fill="#000000" fill-opacity="1.000000"/>
		</g>
		<path id="path" d="M38.69 26.04C39.44 26.45 39.81 27.1 39.81 28C39.81 28.93 39.44 29.6 38.69 30.01L24.36 38.24C24.02 38.46 23.65 38.58 23.24 38.58C22.67 38.58 22.16 38.36 21.7 37.91C21.23 37.46 21 36.92 21 36.28L21 19.76C21 19.13 21.23 18.59 21.7 18.14C22.16 17.69 22.67 17.47 23.24 17.47C23.65 17.47 24.02 17.58 24.36 17.8L38.69 26.04ZM28 2.35C23.33 2.35 19.04 3.5 15.12 5.79C11.2 8.09 8.09 11.2 5.79 15.12C3.5 19.04 2.35 23.33 2.35 28C2.35 32.66 3.5 36.96 5.79 40.88C8.09 44.8 11.2 47.9 15.12 50.2C19.04 52.49 23.33 53.64 28 53.64C32.62 53.64 36.91 52.49 40.85 50.2C44.79 47.9 47.9 44.79 50.2 40.85C52.49 36.91 53.64 32.62 53.64 28C53.64 23.37 52.49 19.08 50.2 15.14C47.9 11.2 44.79 8.09 40.85 5.79C36.91 3.5 32.62 2.35 28 2.35Z" fill="#FFFFFF" fill-opacity="0.600000" fill-rule="nonzero"/>
	</g>
</svg>
